<?xml version="1.0" encoding="UTF-8"?>
<svg width="15px" height="18px" viewBox="0 0 15 18" version="1.1" xmlns="http://www.w3.org/2000/svg" xmlns:xlink="http://www.w3.org/1999/xlink">
    <title>bathup</title>
    <g id="Designs" stroke="none" stroke-width="1" fill="none" fill-rule="evenodd">
        <g id="Property-Listing:-Spec" transform="translate(-542, -233)">
            <g id="Group-7" transform="translate(540, 229.9115)">
                <g id="bathup" transform="translate(0, 0.0885)">
                    <rect id="Rectangle" x="0" y="0" width="20" height="25"></rect>
                    <path d="M16.7,11.9994919 L3.2,11.9994919 L3.2,4.5018436 C3.19990702,4.23442357 3.31372021,3.98716939 3.49871947,3.85288865 C3.68371873,3.71860791 3.91191723,3.7176147 4.09766,3.85028182 L4.63946,4.23737867 C4.24011598,5.11406132 4.35795121,6.21612838 4.92746,6.93093074 L5.83652,8.06724489 L8.45468,4.79443512 L7.54538,3.65804597 C6.84804108,2.78691494 5.71970336,2.77979001 5.01536,3.64207006 L4.39532,3.19917006 C4.02389029,2.93387576 3.56756979,2.93581911 3.19759468,3.20427085 C2.82761958,3.47272259 2.59994241,3.96708389 2.6,4.5018436 L2.6,11.9994919 L2.3,11.9994919 C2.13431458,11.9994919 2,12.1673946 2,12.3745131 C2,12.5816315 2.13431458,12.7495342 2.3,12.7495342 L2.6,12.7495342 L2.6,14.2496189 L14.9,14.2496189 C15.0656854,14.2496189 15.2,14.4175216 15.2,14.6246401 C15.2,14.8317586 15.0656854,14.9996613 14.9,14.9996613 L2.6,14.9996613 L2.6,15.7497036 C2.60063122,17.2397784 3.30732699,18.5878473 4.4,19.1833224 L4.4,20.6249788 C4.4,20.8320973 4.53431458,21 4.7,21 C4.86568542,21 5,20.8320973 5,20.6249788 L5,19.424311 C5.19747118,19.4745565 5.39847969,19.499885 5.6,19.4999153 L13.4,19.4999153 C13.6015203,19.499885 13.8025288,19.4745565 14,19.424311 L14,20.6249788 C14,20.8320973 14.1343146,21 14.3,21 C14.4656854,21 14.6,20.8320973 14.6,20.6249788 L14.6,19.1833224 C15.692673,18.5878473 16.3993688,17.2397784 16.4,15.7497036 L16.4,12.7495342 L16.7,12.7495342 C16.8656854,12.7495342 17,12.5816315 17,12.3745131 C17,12.1673946 16.8656854,11.9994919 16.7,11.9994919 Z" id="Path" fill="#000000" fill-rule="nonzero"></path>
                </g>
            </g>
        </g>
    </g>
</svg>